<svg id="Layer_1" data-name="Layer 1" xmlns="http://www.w3.org/2000/svg" viewBox="0 0 64 64"><defs><style>.cls-1,.cls-3{fill:none;stroke:#20214f;stroke-miterlimit:10;}.cls-1{stroke-width:0.75px;}.cls-2{fill:#20214f;}.cls-4{fill:#3c6df0;}.cls-5{fill:#fff;}</style></defs><title>DBaaS_Icons</title><line class="cls-1" x1="13.71" y1="46.13" x2="13.71" y2="52.03"/><line class="cls-1" x1="15.67" y1="46.13" x2="15.67" y2="52.03"/><line class="cls-1" x1="17.63" y1="46.13" x2="17.63" y2="52.03"/><line class="cls-1" x1="19.6" y1="46.13" x2="19.6" y2="52.03"/><line class="cls-1" x1="21.56" y1="46.13" x2="21.56" y2="52.03"/><line class="cls-1" x1="23.52" y1="46.13" x2="23.52" y2="52.03"/><line class="cls-1" x1="25.48" y1="46.13" x2="25.48" y2="52.03"/><circle class="cls-2" cx="45.67" cy="21.12" r="1.41"/><circle class="cls-2" cx="45.67" cy="30.23" r="1.41"/><circle class="cls-2" cx="45.67" cy="40.05" r="1.41"/><circle class="cls-2" cx="45.67" cy="49.08" r="1.41"/><circle class="cls-2" cx="41.48" cy="21.12" r="1.41"/><circle class="cls-2" cx="41.48" cy="30.23" r="1.41"/><circle class="cls-2" cx="41.48" cy="40.05" r="1.41"/><circle class="cls-2" cx="41.48" cy="49.08" r="1.41"/><line class="cls-3" x1="10.19" y1="25.24" x2="51.02" y2="25.24"/><line class="cls-3" x1="10.19" y1="35.06" x2="51.02" y2="35.06"/><line class="cls-3" x1="10.19" y1="44.36" x2="51.02" y2="44.36"/><rect class="cls-3" x="10.19" y="16.44" width="40.83" height="37.4"/><line class="cls-1" x1="13.71" y1="17.99" x2="13.71" y2="23.89"/><line class="cls-1" x1="15.67" y1="17.99" x2="15.67" y2="23.89"/><line class="cls-1" x1="17.63" y1="17.99" x2="17.63" y2="23.89"/><line class="cls-1" x1="19.6" y1="17.99" x2="19.6" y2="23.89"/><line class="cls-1" x1="21.56" y1="17.99" x2="21.56" y2="23.89"/><line class="cls-1" x1="23.52" y1="17.99" x2="23.52" y2="23.89"/><line class="cls-1" x1="25.48" y1="17.99" x2="25.48" y2="23.89"/><line class="cls-1" x1="13.71" y1="27.2" x2="13.71" y2="33.1"/><line class="cls-1" x1="15.67" y1="27.2" x2="15.67" y2="33.1"/><line class="cls-1" x1="17.63" y1="27.2" x2="17.63" y2="33.1"/><line class="cls-1" x1="19.6" y1="27.2" x2="19.6" y2="33.1"/><line class="cls-1" x1="21.56" y1="27.2" x2="21.56" y2="33.1"/><line class="cls-1" x1="23.52" y1="27.2" x2="23.52" y2="33.1"/><line class="cls-1" x1="25.48" y1="27.2" x2="25.48" y2="33.1"/><line class="cls-1" x1="13.71" y1="36.88" x2="13.71" y2="42.78"/><line class="cls-1" x1="15.67" y1="36.88" x2="15.67" y2="42.78"/><line class="cls-1" x1="17.63" y1="36.88" x2="17.63" y2="42.78"/><line class="cls-1" x1="19.6" y1="36.88" x2="19.6" y2="42.78"/><line class="cls-1" x1="21.56" y1="36.88" x2="21.56" y2="42.78"/><line class="cls-1" x1="23.52" y1="36.88" x2="23.52" y2="42.78"/><line class="cls-1" x1="25.48" y1="36.88" x2="25.48" y2="42.78"/><circle class="cls-4" cx="51.97" cy="15.52" r="8.44"/><polygon class="cls-5" points="52.41 12.35 51.5 12.35 51.5 15.09 48.8 15.09 48.8 15.96 51.5 15.96 51.5 18.69 52.41 18.69 52.41 15.96 55.15 15.96 55.15 15.09 52.41 15.09 52.41 12.35"/></svg>