<svg xmlns="http://www.w3.org/2000/svg" viewBox="0 0 64 64"><defs><style>.cls-1{isolation:isolate;}.cls-2{opacity:0.6;}.cls-3{fill:none;stroke:#20214f;stroke-miterlimit:10;stroke-width:0.5px;}.cls-4{fill:#20214f;}.cls-5{fill:#fff;}.cls-6,.cls-7{fill:#3c6df0;}.cls-7{mix-blend-mode:overlay;}</style></defs><title>DBaaS_Icons</title><g class="cls-1"><g id="Layer_1" data-name="Layer 1"><g class="cls-2"><circle class="cls-3" cx="49.5" cy="14.24" r="1.05"/><circle class="cls-3" cx="49.5" cy="20.97" r="1.05"/><circle class="cls-3" cx="49.5" cy="28.23" r="1.05"/><circle class="cls-3" cx="46.31" cy="14.24" r="1.05"/><circle class="cls-3" cx="46.31" cy="20.97" r="1.05"/><circle class="cls-3" cx="46.31" cy="28.23" r="1.05"/><circle class="cls-3" cx="49.5" cy="34.91" r="1.05"/><circle class="cls-3" cx="46.31" cy="34.91" r="1.05"/><path class="cls-3" d="M22.91,10.41V38.7H53.82V10.41Zm30.18.73v5.78H23.65V11.14Zm-29.44,13V17.66H53.08v6.52Zm29.44.74V31H23.65V24.91ZM23.65,38V31.78H53.08V38Z"/></g><path class="cls-4" d="M38.83,27.35V55.7H7.92V27.35ZM38.09,55V48.73H8.65V55Zm0-7V41.86H8.65V48Zm0-6.87V34.6H8.65v6.52Zm0-7.26V28.08H8.65v5.78Z"/><path class="cls-5" d="M38.09,48.73V55H8.65V48.73Zm-2.54,3.12a1,1,0,0,0-2.09,0,1,1,0,1,0,2.09,0Zm-3.18,0a1,1,0,1,0-1,1A1,1,0,0,0,32.37,51.85Zm-9.48,2V50.19h-.5v3.67Zm-2,0V50.19h-.5v3.67Zm-2,0V50.19h-.5v3.67Zm-2,0V50.19h-.5v3.67Zm-2,0V50.19h-.5v3.67Zm-2,0V50.19h-.5v3.67Zm-2,0V50.19h-.5v3.67Z"/><path class="cls-5" d="M38.09,41.86V48H8.65V41.86Zm-2.54,3.32a1,1,0,1,0-1,1A1,1,0,0,0,35.55,45.18Zm-3.18,0a1.05,1.05,0,1,0-1,1A1,1,0,0,0,32.37,45.18Zm-9.48,1.58V43.09h-.5v3.67Zm-2,0V43.09h-.5v3.67Zm-2,0V43.09h-.5v3.67Zm-2,0V43.09h-.5v3.67Zm-2,0V43.09h-.5v3.67Zm-2,0V43.09h-.5v3.67Zm-2,0V43.09h-.5v3.67Z"/><path class="cls-5" d="M38.09,34.6v6.52H8.65V34.6Zm-2.54,3.32a1,1,0,1,0-1,1A1,1,0,0,0,35.55,37.92Zm-3.18,0a1.05,1.05,0,1,0-1,1A1,1,0,0,0,32.37,37.92Zm-9.48,1.83V36.08h-.5v3.67Zm-2,0V36.08h-.5v3.67Zm-2,0V36.08h-.5v3.67Zm-2,0V36.08h-.5v3.67Zm-2,0V36.08h-.5v3.67Zm-2,0V36.08h-.5v3.67Zm-2,0V36.08h-.5v3.67Z"/><path class="cls-5" d="M38.09,28.08v5.78H8.65V28.08Zm-2.54,3.1a1,1,0,0,0-2.09,0,1,1,0,1,0,2.09,0Zm-3.18,0a1,1,0,1,0-1,1.05A1,1,0,0,0,32.37,31.18ZM22.89,33V29.35h-.5V33Zm-2,0V29.35h-.5V33Zm-2,0V29.35h-.5V33Zm-2,0V29.35h-.5V33Zm-2,0V29.35h-.5V33Zm-2,0V29.35h-.5V33Zm-2,0V29.35h-.5V33Z"/><path class="cls-4" d="M34.51,30.14a1,1,0,0,1,0,2.09,1,1,0,1,1,0-2.09Z"/><path class="cls-4" d="M34.51,36.87a1,1,0,1,1-1,1A1,1,0,0,1,34.51,36.87Z"/><circle class="cls-4" cx="34.51" cy="45.18" r="1.05"/><path class="cls-4" d="M34.51,50.81a1,1,0,0,1,0,2.09,1,1,0,1,1,0-2.09Z"/><path class="cls-4" d="M31.32,30.14a1,1,0,1,1-1.05,1A1,1,0,0,1,31.32,30.14Z"/><path class="cls-4" d="M31.32,36.87a1,1,0,1,1-1.05,1A1,1,0,0,1,31.32,36.87Z"/><ellipse class="cls-4" cx="31.32" cy="45.18" rx="1.05" ry="1.05"/><path class="cls-4" d="M31.32,50.81a1,1,0,1,1-1.05,1A1,1,0,0,1,31.32,50.81Z"/><rect class="cls-4" x="22.39" y="50.19" width="0.5" height="3.67"/><rect class="cls-4" x="22.39" y="43.09" width="0.5" height="3.67"/><rect class="cls-4" x="22.39" y="36.08" width="0.5" height="3.67"/><rect class="cls-4" x="22.39" y="29.35" width="0.5" height="3.67"/><rect class="cls-4" x="20.43" y="50.19" width="0.5" height="3.67"/><rect class="cls-4" x="20.43" y="43.09" width="0.5" height="3.67"/><rect class="cls-4" x="20.43" y="36.08" width="0.5" height="3.67"/><rect class="cls-4" x="20.43" y="29.35" width="0.5" height="3.67"/><rect class="cls-4" x="18.47" y="50.19" width="0.5" height="3.67"/><rect class="cls-4" x="18.47" y="43.09" width="0.5" height="3.67"/><rect class="cls-4" x="18.47" y="36.08" width="0.5" height="3.67"/><rect class="cls-4" x="18.47" y="29.35" width="0.5" height="3.67"/><rect class="cls-4" x="16.5" y="50.19" width="0.5" height="3.67"/><rect class="cls-4" x="16.5" y="43.09" width="0.5" height="3.67"/><rect class="cls-4" x="16.5" y="36.08" width="0.5" height="3.67"/><rect class="cls-4" x="16.5" y="29.35" width="0.5" height="3.67"/><rect class="cls-4" x="14.54" y="50.19" width="0.5" height="3.67"/><rect class="cls-4" x="14.54" y="43.09" width="0.5" height="3.67"/><rect class="cls-4" x="14.54" y="36.08" width="0.5" height="3.67"/><rect class="cls-4" x="14.54" y="29.35" width="0.5" height="3.67"/><rect class="cls-4" x="12.58" y="50.19" width="0.5" height="3.67"/><rect class="cls-4" x="12.58" y="43.09" width="0.5" height="3.67"/><rect class="cls-4" x="12.58" y="36.08" width="0.5" height="3.67"/><rect class="cls-4" x="12.58" y="29.35" width="0.5" height="3.67"/><rect class="cls-4" x="10.62" y="50.19" width="0.5" height="3.67"/><rect class="cls-4" x="10.62" y="43.09" width="0.5" height="3.67"/><rect class="cls-4" x="10.62" y="36.08" width="0.5" height="3.67"/><rect class="cls-4" x="10.62" y="29.35" width="0.5" height="3.67"/><polygon class="cls-6" points="13.93 13.29 13.93 25.54 11.82 23.44 10.91 24.35 14.58 28.02 18.24 24.35 17.33 23.44 15.22 25.54 15.22 14.45 23.14 14.41 23.14 13.29 13.93 13.29"/><polygon class="cls-7" points="47.59 52.47 47.59 40.22 49.7 42.33 50.61 41.41 46.95 37.74 43.28 41.41 44.2 42.33 46.3 40.22 46.3 51.32 38.38 51.35 38.38 52.47 47.59 52.47"/></g></g></svg>