<svg id="Layer_1" data-name="Layer 1" xmlns="http://www.w3.org/2000/svg" viewBox="0 0 64 64"><defs><style>.cls-1{fill:none;stroke:#20214f;stroke-miterlimit:10;stroke-width:0.5px;opacity:0.6;}.cls-2{fill:#ff5c49;}.cls-3{fill:#fff;}</style></defs><title>DBaaS_Icons</title><circle class="cls-1" cx="43.4" cy="21.42" r="1.41"/><circle class="cls-1" cx="43.4" cy="49.55" r="1.41"/><circle class="cls-1" cx="39.11" cy="49.55" r="1.41"/><circle class="cls-1" cx="43.4" cy="40.22" r="1.41"/><circle class="cls-1" cx="39.11" cy="40.22" r="1.41"/><circle class="cls-1" cx="43.4" cy="30.7" r="1.41"/><circle class="cls-1" cx="39.11" cy="30.7" r="1.41"/><circle class="cls-1" cx="39.11" cy="21.42" r="1.41"/><path class="cls-1" d="M7.57,16.54V54.66H49.23V16.54Zm40.66,1v7.79H8.57V17.52ZM8.57,35.09V26.31H48.23v8.78Zm39.67,1v8.26H8.57V36.09ZM8.57,53.68V45.34H48.23v8.34Z"/><circle class="cls-2" cx="49.5" cy="15.65" r="8.44"/><polygon class="cls-3" points="52.05 13.89 51.41 13.25 49.47 15.18 47.57 13.28 46.95 13.89 48.86 15.8 46.92 17.73 47.57 18.38 49.5 16.44 51.44 18.38 52.05 17.76 50.12 15.83 52.05 13.89"/></svg>