<svg id="Layer_1" data-name="Layer 1" xmlns="http://www.w3.org/2000/svg" viewBox="0 0 64 64"><defs><style>.cls-1,.cls-3{fill:none;stroke:#20214f;stroke-miterlimit:10;}.cls-1{stroke-width:0.75px;}.cls-2{fill:#20214f;}.cls-4{fill:#ff5c49;}.cls-5{fill:#fff;}</style></defs><title>DBaaS_Icons</title><line class="cls-1" x1="12.31" y1="46.64" x2="12.31" y2="52.54"/><line class="cls-1" x1="14.28" y1="46.64" x2="14.28" y2="52.54"/><line class="cls-1" x1="16.24" y1="46.64" x2="16.24" y2="52.54"/><line class="cls-1" x1="18.2" y1="46.64" x2="18.2" y2="52.54"/><line class="cls-1" x1="20.16" y1="46.64" x2="20.16" y2="52.54"/><line class="cls-1" x1="22.13" y1="46.64" x2="22.13" y2="52.54"/><line class="cls-1" x1="24.09" y1="46.64" x2="24.09" y2="52.54"/><circle class="cls-2" cx="44.28" cy="49.59" r="1.41"/><circle class="cls-2" cx="40.08" cy="49.59" r="1.41"/><circle class="cls-2" cx="44.28" cy="40.33" r="1.41"/><circle class="cls-2" cx="40.08" cy="40.33" r="1.41"/><circle class="cls-2" cx="44.28" cy="30.66" r="1.41"/><circle class="cls-2" cx="40.08" cy="30.66" r="1.41"/><circle class="cls-2" cx="44.28" cy="21.44" r="1.41"/><circle class="cls-2" cx="40.08" cy="21.44" r="1.41"/><line class="cls-3" x1="8.8" y1="25.75" x2="49.63" y2="25.75"/><line class="cls-3" x1="8.8" y1="35.57" x2="49.63" y2="35.57"/><line class="cls-3" x1="8.8" y1="44.86" x2="49.63" y2="44.86"/><rect class="cls-3" x="8.94" y="16.94" width="40.83" height="37.33"/><line class="cls-1" x1="12.31" y1="18.49" x2="12.31" y2="24.39"/><line class="cls-1" x1="14.28" y1="18.49" x2="14.28" y2="24.39"/><line class="cls-1" x1="16.24" y1="18.49" x2="16.24" y2="24.39"/><line class="cls-1" x1="18.2" y1="18.49" x2="18.2" y2="24.39"/><line class="cls-1" x1="20.16" y1="18.49" x2="20.16" y2="24.39"/><line class="cls-1" x1="22.13" y1="18.49" x2="22.13" y2="24.39"/><line class="cls-1" x1="24.09" y1="18.49" x2="24.09" y2="24.39"/><line class="cls-1" x1="12.31" y1="27.71" x2="12.31" y2="33.61"/><line class="cls-1" x1="14.28" y1="27.71" x2="14.28" y2="33.61"/><line class="cls-1" x1="16.24" y1="27.71" x2="16.24" y2="33.61"/><line class="cls-1" x1="18.2" y1="27.71" x2="18.2" y2="33.61"/><line class="cls-1" x1="20.16" y1="27.71" x2="20.16" y2="33.61"/><line class="cls-1" x1="22.13" y1="27.71" x2="22.13" y2="33.61"/><line class="cls-1" x1="24.09" y1="27.71" x2="24.09" y2="33.61"/><line class="cls-1" x1="12.31" y1="37.38" x2="12.31" y2="43.28"/><line class="cls-1" x1="14.28" y1="37.38" x2="14.28" y2="43.28"/><line class="cls-1" x1="16.24" y1="37.38" x2="16.24" y2="43.28"/><line class="cls-1" x1="18.2" y1="37.38" x2="18.2" y2="43.28"/><line class="cls-1" x1="20.16" y1="37.38" x2="20.16" y2="43.28"/><line class="cls-1" x1="22.13" y1="37.38" x2="22.13" y2="43.28"/><line class="cls-1" x1="24.09" y1="37.38" x2="24.09" y2="43.28"/><circle class="cls-4" cx="50.06" cy="15.33" r="8.44"/><polygon class="cls-5" points="52.62 13.57 51.97 12.93 50.04 14.86 48.13 12.96 47.52 13.57 49.42 15.48 47.49 17.41 48.13 18.06 50.07 16.12 52 18.06 52.62 17.44 50.68 15.51 52.62 13.57"/></svg>