<svg xmlns="http://www.w3.org/2000/svg" viewBox="0 0 64 64"><defs><style>.cls-1{isolation:isolate;}.cls-2,.cls-4{fill:none;stroke:#20214f;stroke-miterlimit:10;}.cls-2{stroke-width:0.75px;}.cls-3{fill:#20214f;}.cls-5,.cls-6{fill:#ff5c49;}.cls-5{mix-blend-mode:overlay;}.cls-7{fill:#fff;}</style></defs><title>DBaaS_Icons</title><g class="cls-1"><g id="Layer_1" data-name="Layer 1"><line class="cls-2" x1="12.15" y1="46.68" x2="12.15" y2="52.58"/><line class="cls-2" x1="14.12" y1="46.68" x2="14.12" y2="52.58"/><line class="cls-2" x1="16.08" y1="46.68" x2="16.08" y2="52.58"/><line class="cls-2" x1="18.04" y1="46.68" x2="18.04" y2="52.58"/><line class="cls-2" x1="20" y1="46.68" x2="20" y2="52.58"/><line class="cls-2" x1="21.97" y1="46.68" x2="21.97" y2="52.58"/><line class="cls-2" x1="23.93" y1="46.68" x2="23.93" y2="52.58"/><circle class="cls-3" cx="44.12" cy="49.63" r="1.41"/><circle class="cls-3" cx="39.93" cy="49.63" r="1.41"/><line class="cls-4" x1="8.64" y1="25.79" x2="49.47" y2="25.79"/><line class="cls-4" x1="8.64" y1="35.61" x2="49.47" y2="35.61"/><line class="cls-4" x1="8.64" y1="44.9" x2="49.47" y2="44.9"/><rect class="cls-4" x="8.64" y="16.98" width="40.83" height="37.33"/><line class="cls-2" x1="12.15" y1="18.53" x2="12.15" y2="24.43"/><line class="cls-2" x1="14.12" y1="18.53" x2="14.12" y2="24.43"/><line class="cls-2" x1="16.08" y1="18.53" x2="16.08" y2="24.43"/><line class="cls-2" x1="18.04" y1="18.53" x2="18.04" y2="24.43"/><line class="cls-2" x1="20" y1="18.53" x2="20" y2="24.43"/><line class="cls-2" x1="21.97" y1="18.53" x2="21.97" y2="24.43"/><line class="cls-2" x1="23.93" y1="18.53" x2="23.93" y2="24.43"/><line class="cls-2" x1="12.15" y1="27.75" x2="12.15" y2="33.65"/><line class="cls-2" x1="14.12" y1="27.75" x2="14.12" y2="33.65"/><line class="cls-2" x1="16.08" y1="27.75" x2="16.08" y2="33.65"/><line class="cls-2" x1="18.04" y1="27.75" x2="18.04" y2="33.65"/><line class="cls-2" x1="20" y1="27.75" x2="20" y2="33.65"/><line class="cls-2" x1="21.97" y1="27.75" x2="21.97" y2="33.65"/><line class="cls-2" x1="23.93" y1="27.75" x2="23.93" y2="33.65"/><line class="cls-2" x1="12.15" y1="37.42" x2="12.15" y2="43.32"/><line class="cls-2" x1="14.12" y1="37.42" x2="14.12" y2="43.32"/><line class="cls-2" x1="16.08" y1="37.42" x2="16.08" y2="43.32"/><line class="cls-2" x1="18.04" y1="37.42" x2="18.04" y2="43.32"/><line class="cls-2" x1="20" y1="37.42" x2="20" y2="43.32"/><line class="cls-2" x1="21.97" y1="37.42" x2="21.97" y2="43.32"/><line class="cls-2" x1="23.93" y1="37.42" x2="23.93" y2="43.32"/><rect class="cls-5" x="5.86" y="42.39" width="46.12" height="13.92"/><circle class="cls-6" cx="49.5" cy="15.48" r="8.44"/><polygon class="cls-7" points="52.05 13.72 51.41 13.07 49.47 15.01 47.57 13.1 46.95 13.72 48.86 15.62 46.92 17.56 47.57 18.2 49.5 16.27 51.44 18.2 52.05 17.59 50.12 15.65 52.05 13.72"/></g></g></svg>