<svg xmlns="http://www.w3.org/2000/svg" viewBox="0 0 64 64"><defs><style>.cls-1{isolation:isolate;}.cls-2,.cls-4{fill:none;stroke:#20214f;stroke-miterlimit:10;}.cls-2{stroke-width:0.75px;}.cls-3{fill:#20214f;}.cls-5,.cls-6{fill:#3c6df0;}.cls-5{mix-blend-mode:overlay;}.cls-7{fill:#fff;}</style></defs><title>DBaaS_Icons</title><g class="cls-1"><g id="Layer_1" data-name="Layer 1"><line class="cls-2" x1="12.25" y1="46.53" x2="12.25" y2="52.43"/><line class="cls-2" x1="14.21" y1="46.53" x2="14.21" y2="52.43"/><line class="cls-2" x1="16.17" y1="46.53" x2="16.17" y2="52.43"/><line class="cls-2" x1="18.14" y1="46.53" x2="18.14" y2="52.43"/><line class="cls-2" x1="20.1" y1="46.53" x2="20.1" y2="52.43"/><line class="cls-2" x1="22.06" y1="46.53" x2="22.06" y2="52.43"/><line class="cls-2" x1="24.02" y1="46.53" x2="24.02" y2="52.43"/><circle class="cls-3" cx="44.21" cy="49.48" r="1.41"/><circle class="cls-3" cx="40.02" cy="49.48" r="1.41"/><line class="cls-4" x1="8.73" y1="25.64" x2="49.56" y2="25.64"/><line class="cls-4" x1="8.73" y1="35.46" x2="49.56" y2="35.46"/><line class="cls-4" x1="8.73" y1="44.75" x2="49.56" y2="44.75"/><rect class="cls-4" x="8.73" y="16.84" width="40.83" height="37.33"/><line class="cls-2" x1="12.25" y1="18.39" x2="12.25" y2="24.29"/><line class="cls-2" x1="14.21" y1="18.39" x2="14.21" y2="24.29"/><line class="cls-2" x1="16.17" y1="18.39" x2="16.17" y2="24.29"/><line class="cls-2" x1="18.14" y1="18.39" x2="18.14" y2="24.29"/><line class="cls-2" x1="20.1" y1="18.39" x2="20.1" y2="24.29"/><line class="cls-2" x1="22.06" y1="18.39" x2="22.06" y2="24.29"/><line class="cls-2" x1="24.02" y1="18.39" x2="24.02" y2="24.29"/><line class="cls-2" x1="12.25" y1="27.6" x2="12.25" y2="33.5"/><line class="cls-2" x1="14.21" y1="27.6" x2="14.21" y2="33.5"/><line class="cls-2" x1="16.17" y1="27.6" x2="16.17" y2="33.5"/><line class="cls-2" x1="18.14" y1="27.6" x2="18.14" y2="33.5"/><line class="cls-2" x1="20.1" y1="27.6" x2="20.1" y2="33.5"/><line class="cls-2" x1="22.06" y1="27.6" x2="22.06" y2="33.5"/><line class="cls-2" x1="24.02" y1="27.6" x2="24.02" y2="33.5"/><line class="cls-2" x1="12.25" y1="37.28" x2="12.25" y2="43.18"/><line class="cls-2" x1="14.21" y1="37.28" x2="14.21" y2="43.18"/><line class="cls-2" x1="16.17" y1="37.28" x2="16.17" y2="43.18"/><line class="cls-2" x1="18.14" y1="37.28" x2="18.14" y2="43.18"/><line class="cls-2" x1="20.1" y1="37.28" x2="20.1" y2="43.18"/><line class="cls-2" x1="22.06" y1="37.28" x2="22.06" y2="43.18"/><line class="cls-2" x1="24.02" y1="37.28" x2="24.02" y2="43.18"/><rect class="cls-5" x="5.96" y="42.25" width="46.51" height="13.92"/><circle class="cls-6" cx="50.25" cy="15.26" r="8.44"/><rect class="cls-7" x="47.83" y="14.58" width="4.58" height="1.68" transform="translate(3.78 39.96) rotate(-45)"/><rect class="cls-7" x="52.18" y="12.07" width="0.84" height="1.68" transform="translate(6.27 40.97) rotate(-45)"/><polygon class="cls-7" points="47.02 18.5 48.09 18.08 47.44 17.43 47.02 18.5"/></g></g></svg>