<svg id="Layer_1" data-name="Layer 1" xmlns="http://www.w3.org/2000/svg" viewBox="0 0 64 64"><defs><style>.cls-1{fill:#3c6df0;}.cls-2{fill:none;stroke:#20214f;stroke-miterlimit:10;}</style></defs><title>DBaaS_Icons [Recovered]</title><g id="Icon"><path class="cls-1" d="M30.52,18c-3.55,0-6.3,2.24-8,5.07,1.66,2.82,4.42,5.07,8,5.07s6.3-2.24,8-5.07C36.82,20.25,34.07,18,30.52,18Zm0,8.69a7.54,7.54,0,0,1-6.22-3.62,7.54,7.54,0,0,1,6.22-3.62,7.54,7.54,0,0,1,6.22,3.62A7.54,7.54,0,0,1,30.52,26.69Z"/><circle class="cls-1" cx="30.52" cy="23.07" r="2.17"/></g><circle class="cls-2" cx="30.47" cy="22.71" r="13.59"/><path class="cls-2" d="M43.62,42H17.87a6.55,6.55,0,0,0-6.44,6.44v6.44H50.05V48.45A6.55,6.55,0,0,0,43.62,42Z"/></svg>