<svg id="Layer_1" data-name="Layer 1" xmlns="http://www.w3.org/2000/svg" viewBox="0 0 64 64"><defs><style>.cls-1{fill:#34bc6e;}.cls-2{fill:none;stroke:#20214f;stroke-miterlimit:10;}</style></defs><title>DBaaS_Icons [Recovered]</title><path class="cls-1" d="M37.92,20.84h-8a4.13,4.13,0,1,0,0,3.89h1.55l.65-.65.65.65h5.18l1.94-1.94Zm-.38,3H33.12l-.38-.38-.65-.65-.65.65-.38.38H29.35l-.26.48a3.21,3.21,0,1,1,0-3l.26.48h8.2l1,1Z"/><circle class="cls-1" cx="24.96" cy="22.78" r="0.92" transform="translate(-8.8 24.33) rotate(-45)"/><rect class="cls-1" x="33.39" y="22.55" width="3.89" height="0.46"/><circle class="cls-2" cx="30.47" cy="22.71" r="13.59"/><path class="cls-2" d="M43.62,42H17.87a6.55,6.55,0,0,0-6.44,6.44v6.44H50.05V48.45A6.55,6.55,0,0,0,43.62,42Z"/></svg>