<svg xmlns="http://www.w3.org/2000/svg" viewBox="0 0 64 64"><defs><style>.cls-1{isolation:isolate;}.cls-2,.cls-4{fill:none;stroke:#20214f;stroke-miterlimit:10;}.cls-2{stroke-width:0.75px;}.cls-3{fill:#20214f;}.cls-5{fill:#5392ff;}.cls-5,.cls-6{mix-blend-mode:overlay;}.cls-6{fill:#3c6df0;}</style></defs><title>DBaaS_Icons17</title><g class="cls-1"><g id="Layer_1" data-name="Layer 1"><line class="cls-2" x1="14.31" y1="43.48" x2="14.31" y2="49.38"/><line class="cls-2" x1="16.28" y1="43.48" x2="16.28" y2="49.38"/><line class="cls-2" x1="18.24" y1="43.48" x2="18.24" y2="49.38"/><line class="cls-2" x1="20.2" y1="43.48" x2="20.2" y2="49.38"/><line class="cls-2" x1="22.16" y1="43.48" x2="22.16" y2="49.38"/><line class="cls-2" x1="24.13" y1="43.48" x2="24.13" y2="49.38"/><line class="cls-2" x1="26.09" y1="43.48" x2="26.09" y2="49.38"/><circle class="cls-3" cx="46.28" cy="46.43" r="1.41"/><circle class="cls-3" cx="42.09" cy="46.43" r="1.41"/><line class="cls-4" x1="10.8" y1="22.59" x2="51.63" y2="22.59"/><line class="cls-4" x1="10.8" y1="32.41" x2="51.63" y2="32.41"/><line class="cls-4" x1="10.8" y1="41.7" x2="51.63" y2="41.7"/><rect class="cls-4" x="10.8" y="13.78" width="40.83" height="37.33"/><line class="cls-2" x1="14.31" y1="15.33" x2="14.31" y2="21.23"/><line class="cls-2" x1="16.28" y1="15.33" x2="16.28" y2="21.23"/><line class="cls-2" x1="18.24" y1="15.33" x2="18.24" y2="21.23"/><line class="cls-2" x1="20.2" y1="15.33" x2="20.2" y2="21.23"/><line class="cls-2" x1="22.16" y1="15.33" x2="22.16" y2="21.23"/><line class="cls-2" x1="24.13" y1="15.33" x2="24.13" y2="21.23"/><line class="cls-2" x1="26.09" y1="15.33" x2="26.09" y2="21.23"/><line class="cls-2" x1="14.31" y1="24.55" x2="14.31" y2="30.45"/><line class="cls-2" x1="16.28" y1="24.55" x2="16.28" y2="30.45"/><line class="cls-2" x1="18.24" y1="24.55" x2="18.24" y2="30.45"/><line class="cls-2" x1="20.2" y1="24.55" x2="20.2" y2="30.45"/><line class="cls-2" x1="22.16" y1="24.55" x2="22.16" y2="30.45"/><line class="cls-2" x1="24.13" y1="24.55" x2="24.13" y2="30.45"/><line class="cls-2" x1="26.09" y1="24.55" x2="26.09" y2="30.45"/><line class="cls-2" x1="14.31" y1="34.22" x2="14.31" y2="40.12"/><line class="cls-2" x1="16.28" y1="34.22" x2="16.28" y2="40.12"/><line class="cls-2" x1="18.24" y1="34.22" x2="18.24" y2="40.12"/><line class="cls-2" x1="20.2" y1="34.22" x2="20.2" y2="40.12"/><line class="cls-2" x1="22.16" y1="34.22" x2="22.16" y2="40.12"/><line class="cls-2" x1="24.13" y1="34.22" x2="24.13" y2="40.12"/><line class="cls-2" x1="26.09" y1="34.22" x2="26.09" y2="40.12"/><rect class="cls-5" x="8.02" y="39.19" width="46.51" height="13.92"/><polygon class="cls-6" points="37.87 29.52 46.9 20.49 46.9 27.07 49.77 27.07 49.77 15.59 38.29 15.59 38.29 18.46 44.87 18.46 35.84 27.49 37.87 29.52"/></g></g></svg>