<svg xmlns="http://www.w3.org/2000/svg" viewBox="0 0 64 64"><defs><style>.cls-1{isolation:isolate;}.cls-2{fill:#3c6df0;mix-blend-mode:overlay;}.cls-3{fill:none;stroke:#20214f;stroke-miterlimit:10;stroke-width:0.5px;opacity:0.6;}</style></defs><title>DBaaS_Icons</title><g class="cls-1"><g id="Layer_1" data-name="Layer 1"><polygon class="cls-2" points="38.85 29.52 47.88 20.49 47.88 27.07 50.74 27.07 50.74 15.59 39.27 15.59 39.27 18.46 45.85 18.46 36.82 27.49 38.85 29.52"/><circle class="cls-3" cx="47.17" cy="18.27" r="1.41"/><circle class="cls-3" cx="47.17" cy="46.41" r="1.41"/><circle class="cls-3" cx="42.88" cy="46.41" r="1.41"/><circle class="cls-3" cx="47.17" cy="37.07" r="1.41"/><circle class="cls-3" cx="42.88" cy="37.07" r="1.41"/><circle class="cls-3" cx="47.17" cy="27.55" r="1.41"/><circle class="cls-3" cx="42.88" cy="27.55" r="1.41"/><circle class="cls-3" cx="42.88" cy="18.27" r="1.41"/><path class="cls-3" d="M11.34,13.4V51.52H53V13.4Zm40.66,1v7.79H12.34V14.38ZM12.34,31.95V23.16H52v8.78Zm39.67,1V41.2H12.34V32.94ZM12.34,50.54V42.2H52v8.34Z"/></g></g></svg>