<svg id="Layer_1" data-name="Layer 1" xmlns="http://www.w3.org/2000/svg" viewBox="0 0 64 64"><defs><style>.cls-1{fill:#3c6df0;}.cls-2{fill:none;stroke:#20214f;stroke-miterlimit:10;}.cls-3{fill:#fff;}</style></defs><title>ManageRoot</title><g id="Icon"><path class="cls-1" d="M30.52,18c-3.55,0-6.3,2.24-8,5.07,1.66,2.82,4.42,5.07,8,5.07s6.3-2.24,8-5.07C36.82,20.25,34.07,18,30.52,18Zm0,8.69a7.54,7.54,0,0,1-6.22-3.62,7.54,7.54,0,0,1,6.22-3.62,7.54,7.54,0,0,1,6.22,3.62A7.54,7.54,0,0,1,30.52,26.69Z"/><circle class="cls-1" cx="30.52" cy="23.07" r="2.17"/></g><circle class="cls-2" cx="30.47" cy="22.71" r="13.59"/><path class="cls-2" d="M43.62,42H17.87a6.55,6.55,0,0,0-6.44,6.44v6.44H50.05V48.45A6.55,6.55,0,0,0,43.62,42Z"/><circle class="cls-1" cx="46.37" cy="15.26" r="8.44"/><path class="cls-3" d="M49.35,15.37a1.8,1.8,0,0,0,0-.44l.89-.77-.77-1.25-1.07.33a2.66,2.66,0,0,0-.89-.52l-.22-1H45.78l-.22,1a2.66,2.66,0,0,0-.89.52L43.6,12.9l-.77,1.25.89.77a2.67,2.67,0,0,0,0,.89l-.89.77.77,1.25,1.07-.33a2.66,2.66,0,0,0,.89.52l.22,1h1.48l.22-1a2.66,2.66,0,0,0,.89-.52l1.07.33.77-1.25-.89-.77C49.32,15.66,49.35,15.52,49.35,15.37Zm.22,1.33-.33.55-.7-.22L48.28,17l-.22.18a2.46,2.46,0,0,1-.74.44l-.26.07-.07.26-.15.66h-.7L46,17.91l-.07-.26-.26-.07a3,3,0,0,1-.74-.44L44.71,17l-.26.07-.7.22-.33-.55.59-.52.22-.18v-.26a1.86,1.86,0,0,1,0-.74l0-.26L44,14.56,43.45,14l.33-.55.7.22.26.07L45,13.6a2.46,2.46,0,0,1,.74-.44l.26-.07.07-.26.15-.66h.7l.15.66.07.26.26.07a3,3,0,0,1,.74.44l.22.18.26-.07.7-.22.33.55-.59.52-.22.18,0,.26a1.86,1.86,0,0,1,0,.74l0,.26.22.18Z"/><path class="cls-3" d="M46.51,13.89A1.48,1.48,0,1,0,48,15.37,1.48,1.48,0,0,0,46.51,13.89Zm0,2a.48.48,0,1,1,.48-.48A.49.49,0,0,1,46.51,15.85Z"/></svg>