<svg xmlns="http://www.w3.org/2000/svg" viewBox="0 0 64 64"><defs><style>.cls-1{isolation:isolate;}.cls-2,.cls-4{fill:none;stroke:#20214f;stroke-miterlimit:10;}.cls-2{stroke-width:0.75px;}.cls-3{fill:#20214f;}.cls-5{fill:#3c6df0;mix-blend-mode:overlay;}</style></defs><title>DBaaS_Icons</title><g class="cls-1"><g id="Layer_1" data-name="Layer 1"><line class="cls-2" x1="15.6" y1="42.97" x2="15.6" y2="48.87"/><line class="cls-2" x1="17.57" y1="42.97" x2="17.57" y2="48.87"/><line class="cls-2" x1="19.53" y1="42.97" x2="19.53" y2="48.87"/><line class="cls-2" x1="21.49" y1="42.97" x2="21.49" y2="48.87"/><line class="cls-2" x1="23.45" y1="42.97" x2="23.45" y2="48.87"/><line class="cls-2" x1="25.42" y1="42.97" x2="25.42" y2="48.87"/><line class="cls-2" x1="27.38" y1="42.97" x2="27.38" y2="48.87"/><circle class="cls-3" cx="47.57" cy="45.92" r="1.41"/><circle class="cls-3" cx="43.38" cy="45.92" r="1.41"/><line class="cls-4" x1="12.09" y1="22.08" x2="52.92" y2="22.08"/><line class="cls-4" x1="12.09" y1="31.9" x2="52.92" y2="31.9"/><line class="cls-4" x1="12.09" y1="41.19" x2="52.92" y2="41.19"/><rect class="cls-4" x="12.09" y="13.28" width="40.83" height="37.27"/><line class="cls-2" x1="15.6" y1="14.83" x2="15.6" y2="20.73"/><line class="cls-2" x1="17.57" y1="14.83" x2="17.57" y2="20.73"/><line class="cls-2" x1="19.53" y1="14.83" x2="19.53" y2="20.73"/><line class="cls-2" x1="21.49" y1="14.83" x2="21.49" y2="20.73"/><line class="cls-2" x1="23.45" y1="14.83" x2="23.45" y2="20.73"/><line class="cls-2" x1="25.42" y1="14.83" x2="25.42" y2="20.73"/><line class="cls-2" x1="27.38" y1="14.83" x2="27.38" y2="20.73"/><line class="cls-2" x1="15.6" y1="24.04" x2="15.6" y2="29.94"/><line class="cls-2" x1="17.57" y1="24.04" x2="17.57" y2="29.94"/><line class="cls-2" x1="19.53" y1="24.04" x2="19.53" y2="29.94"/><line class="cls-2" x1="21.49" y1="24.04" x2="21.49" y2="29.94"/><line class="cls-2" x1="23.45" y1="24.04" x2="23.45" y2="29.94"/><line class="cls-2" x1="25.42" y1="24.04" x2="25.42" y2="29.94"/><line class="cls-2" x1="27.38" y1="24.04" x2="27.38" y2="29.94"/><line class="cls-2" x1="15.6" y1="33.72" x2="15.6" y2="39.62"/><line class="cls-2" x1="17.57" y1="33.72" x2="17.57" y2="39.62"/><line class="cls-2" x1="19.53" y1="33.72" x2="19.53" y2="39.62"/><line class="cls-2" x1="21.49" y1="33.72" x2="21.49" y2="39.62"/><line class="cls-2" x1="23.45" y1="33.72" x2="23.45" y2="39.62"/><line class="cls-2" x1="25.42" y1="33.72" x2="25.42" y2="39.62"/><line class="cls-2" x1="27.38" y1="33.72" x2="27.38" y2="39.62"/><polygon class="cls-5" points="58.78 42.44 57.98 43.24 59.58 44.84 55.6 44.84 55.6 38.9 33.22 38.9 33.22 35.14 34.82 36.74 35.62 35.94 32.42 32.74 29.23 35.94 30.03 36.74 31.63 35.14 31.63 38.9 9.09 38.9 9.09 44.84 5.1 44.84 6.69 43.24 5.89 42.44 2.7 45.63 5.89 48.83 6.69 48.03 5.1 46.43 9.09 46.43 9.09 52.82 31.63 52.82 31.63 56.8 30.03 55.2 29.23 56 32.42 59.2 35.62 56 34.82 55.2 33.22 56.8 33.22 52.82 55.6 52.82 55.6 46.43 59.58 46.43 57.98 48.03 58.78 48.83 61.97 45.63 58.78 42.44"/></g></g></svg>