<svg xmlns="http://www.w3.org/2000/svg" viewBox="0 0 64 64"><defs><style>.cls-1{isolation:isolate;}.cls-2,.cls-4{fill:none;stroke:#20214f;stroke-miterlimit:10;}.cls-2{stroke-width:0.75px;}.cls-3{fill:#20214f;}.cls-5,.cls-7{fill:#5392ff;}.cls-5,.cls-6{mix-blend-mode:overlay;}</style></defs><title>RestartInstance</title><g class="cls-1"><g id="Layer_1" data-name="Layer 1"><line class="cls-2" x1="14.31" y1="43.48" x2="14.31" y2="49.38"/><line class="cls-2" x1="16.28" y1="43.48" x2="16.28" y2="49.38"/><line class="cls-2" x1="18.24" y1="43.48" x2="18.24" y2="49.38"/><line class="cls-2" x1="20.2" y1="43.48" x2="20.2" y2="49.38"/><line class="cls-2" x1="22.16" y1="43.48" x2="22.16" y2="49.38"/><line class="cls-2" x1="24.13" y1="43.48" x2="24.13" y2="49.38"/><line class="cls-2" x1="26.09" y1="43.48" x2="26.09" y2="49.38"/><circle class="cls-3" cx="46.28" cy="46.43" r="1.41"/><circle class="cls-3" cx="42.09" cy="46.43" r="1.41"/><line class="cls-4" x1="10.8" y1="22.59" x2="51.63" y2="22.59"/><line class="cls-4" x1="10.8" y1="32.41" x2="51.63" y2="32.41"/><line class="cls-4" x1="10.8" y1="41.7" x2="51.63" y2="41.7"/><rect class="cls-4" x="10.8" y="13.78" width="40.83" height="37.33"/><line class="cls-2" x1="14.31" y1="15.33" x2="14.31" y2="21.23"/><line class="cls-2" x1="16.28" y1="15.33" x2="16.28" y2="21.23"/><line class="cls-2" x1="18.24" y1="15.33" x2="18.24" y2="21.23"/><line class="cls-2" x1="20.2" y1="15.33" x2="20.2" y2="21.23"/><line class="cls-2" x1="22.16" y1="15.33" x2="22.16" y2="21.23"/><line class="cls-2" x1="24.13" y1="15.33" x2="24.13" y2="21.23"/><line class="cls-2" x1="26.09" y1="15.33" x2="26.09" y2="21.23"/><line class="cls-2" x1="14.31" y1="24.55" x2="14.31" y2="30.45"/><line class="cls-2" x1="16.28" y1="24.55" x2="16.28" y2="30.45"/><line class="cls-2" x1="18.24" y1="24.55" x2="18.24" y2="30.45"/><line class="cls-2" x1="20.2" y1="24.55" x2="20.2" y2="30.45"/><line class="cls-2" x1="22.16" y1="24.55" x2="22.16" y2="30.45"/><line class="cls-2" x1="24.13" y1="24.55" x2="24.13" y2="30.45"/><line class="cls-2" x1="26.09" y1="24.55" x2="26.09" y2="30.45"/><line class="cls-2" x1="14.31" y1="34.22" x2="14.31" y2="40.12"/><line class="cls-2" x1="16.28" y1="34.22" x2="16.28" y2="40.12"/><line class="cls-2" x1="18.24" y1="34.22" x2="18.24" y2="40.12"/><line class="cls-2" x1="20.2" y1="34.22" x2="20.2" y2="40.12"/><line class="cls-2" x1="22.16" y1="34.22" x2="22.16" y2="40.12"/><line class="cls-2" x1="24.13" y1="34.22" x2="24.13" y2="40.12"/><line class="cls-2" x1="26.09" y1="34.22" x2="26.09" y2="40.12"/><rect class="cls-5" x="8.02" y="39.19" width="46.51" height="13.92"/><g class="cls-6"><circle class="cls-7" cx="41.86" cy="23.42" r="2.04"/><path class="cls-7" d="M41.86,29.54A6.2,6.2,0,0,0,48,23.32v-6l1.7,1.7,1-1-3.4-3.4L43.9,18l1,1,1.7-1.7v6a4.84,4.84,0,0,1-4.76,4.85,4.77,4.77,0,0,1-3.21-8.3l-.92-1a6.13,6.13,0,0,0,4.13,10.66Z"/></g></g></g></svg>