<svg id="Layer_1" data-name="Layer 1" xmlns="http://www.w3.org/2000/svg" viewBox="0 0 64 64"><defs><style>.cls-1{fill:#ff5c49;}.cls-2{fill:#fff;}.cls-3{fill:none;stroke:#20214f;stroke-miterlimit:10;}</style></defs><title>DBaaS_Icons [Recovered]</title><path class="cls-1" d="M34.4,19a3.9,3.9,0,0,0-7.8,0v1.77a5.2,5.2,0,1,0,7.8,0Zm-6.5,0a2.6,2.6,0,1,1,5.2,0v.7a5.17,5.17,0,0,0-5.2,0Z"/><circle class="cls-2" cx="30.5" cy="24.39" r="0.9"/><circle class="cls-3" cx="30.47" cy="22.71" r="13.59"/><path class="cls-3" d="M43.62,42H17.87a6.55,6.55,0,0,0-6.44,6.44v6.44H50.05V48.45A6.55,6.55,0,0,0,43.62,42Z"/></svg>