<svg xmlns="http://www.w3.org/2000/svg" viewBox="0 0 64 64"><defs><style>.cls-1{isolation:isolate;}.cls-2,.cls-4{fill:none;stroke:#20214f;stroke-miterlimit:10;}.cls-2{stroke-width:0.75px;}.cls-3{fill:#20214f;}.cls-5{fill:#3c6df0;mix-blend-mode:overlay;}</style></defs><title>DBaaS_Icons</title><g class="cls-1"><g id="Layer_1" data-name="Layer 1"><line class="cls-2" x1="15.96" y1="46.49" x2="15.96" y2="52.39"/><line class="cls-2" x1="17.93" y1="46.49" x2="17.93" y2="52.39"/><line class="cls-2" x1="19.89" y1="46.49" x2="19.89" y2="52.39"/><line class="cls-2" x1="21.85" y1="46.49" x2="21.85" y2="52.39"/><line class="cls-2" x1="23.81" y1="46.49" x2="23.81" y2="52.39"/><line class="cls-2" x1="25.78" y1="46.49" x2="25.78" y2="52.39"/><line class="cls-2" x1="27.74" y1="46.49" x2="27.74" y2="52.39"/><circle class="cls-3" cx="47.93" cy="49.44" r="1.41"/><circle class="cls-3" cx="43.73" cy="49.44" r="1.41"/><line class="cls-4" x1="12.45" y1="25.6" x2="53.28" y2="25.6"/><line class="cls-4" x1="12.45" y1="35.42" x2="53.28" y2="35.42"/><line class="cls-4" x1="12.45" y1="44.71" x2="53.28" y2="44.71"/><rect class="cls-4" x="12.45" y="16.8" width="40.83" height="37.33"/><line class="cls-2" x1="15.96" y1="18.35" x2="15.96" y2="24.25"/><line class="cls-2" x1="17.93" y1="18.35" x2="17.93" y2="24.25"/><line class="cls-2" x1="19.89" y1="18.35" x2="19.89" y2="24.25"/><line class="cls-2" x1="21.85" y1="18.35" x2="21.85" y2="24.25"/><line class="cls-2" x1="23.81" y1="18.35" x2="23.81" y2="24.25"/><line class="cls-2" x1="25.78" y1="18.35" x2="25.78" y2="24.25"/><line class="cls-2" x1="27.74" y1="18.35" x2="27.74" y2="24.25"/><line class="cls-2" x1="15.96" y1="27.56" x2="15.96" y2="33.46"/><line class="cls-2" x1="17.93" y1="27.56" x2="17.93" y2="33.46"/><line class="cls-2" x1="19.89" y1="27.56" x2="19.89" y2="33.46"/><line class="cls-2" x1="21.85" y1="27.56" x2="21.85" y2="33.46"/><line class="cls-2" x1="23.81" y1="27.56" x2="23.81" y2="33.46"/><line class="cls-2" x1="25.78" y1="27.56" x2="25.78" y2="33.46"/><line class="cls-2" x1="27.74" y1="27.56" x2="27.74" y2="33.46"/><line class="cls-2" x1="15.96" y1="37.24" x2="15.96" y2="43.14"/><line class="cls-2" x1="17.93" y1="37.24" x2="17.93" y2="43.14"/><line class="cls-2" x1="19.89" y1="37.24" x2="19.89" y2="43.14"/><line class="cls-2" x1="21.85" y1="37.24" x2="21.85" y2="43.14"/><line class="cls-2" x1="23.81" y1="37.24" x2="23.81" y2="43.14"/><line class="cls-2" x1="25.78" y1="37.24" x2="25.78" y2="43.14"/><line class="cls-2" x1="27.74" y1="37.24" x2="27.74" y2="43.14"/><polygon class="cls-5" points="53.58 32 53.58 42.37 34.91 42.37 34.91 26.17 40.84 32.1 43.42 29.51 33.08 19.18 22.74 29.51 25.33 32.1 31.25 26.17 31.25 42.37 12.04 42.37 12.04 32 9.73 32 9.73 42.37 9.73 44.08 9.73 56.29 56.24 56.29 56.24 42.61 56.24 42.37 56.24 32 53.58 32"/></g></g></svg>